<mxfile host="app.diagrams.net" modified="2024-05-16T07:02:00.647Z" agent="Mozilla/5.0 (Windows NT 10.0; Win64; x64) AppleWebKit/537.36 (KHTML, like Gecko) Chrome/123.0.0.0 Safari/537.36 OPR/109.0.0.0" etag="XR0AB3EN-sT-cneoe2bX" version="24.4.2" type="device">
  <diagram id="C5RBs43oDa-KdzZeNtuy" name="Page-1">
    <mxGraphModel dx="2220" dy="766" grid="1" gridSize="10" guides="1" tooltips="1" connect="1" arrows="1" fold="1" page="1" pageScale="1" pageWidth="827" pageHeight="1169" math="0" shadow="0">
      <root>
        <mxCell id="WIyWlLk6GJQsqaUBKTNV-0" />
        <mxCell id="WIyWlLk6GJQsqaUBKTNV-1" parent="WIyWlLk6GJQsqaUBKTNV-0" />
        <mxCell id="zkfFHV4jXpPFQw0GAbJ--0" value="Side" style="swimlane;fontStyle=2;align=center;verticalAlign=top;childLayout=stackLayout;horizontal=1;startSize=26;horizontalStack=0;resizeParent=1;resizeLast=0;collapsible=1;marginBottom=0;rounded=0;shadow=0;strokeWidth=1;" parent="WIyWlLk6GJQsqaUBKTNV-1" vertex="1">
          <mxGeometry x="220" y="120" width="200" height="138" as="geometry">
            <mxRectangle x="230" y="140" width="160" height="26" as="alternateBounds" />
          </mxGeometry>
        </mxCell>
        <mxCell id="pfkrhXHRXbco_d5HkhHZ-19" value="- PApplet p" style="text;align=left;verticalAlign=top;spacingLeft=4;spacingRight=4;overflow=hidden;rotatable=0;points=[[0,0.5],[1,0.5]];portConstraint=eastwest;" vertex="1" parent="zkfFHV4jXpPFQw0GAbJ--0">
          <mxGeometry y="26" width="200" height="26" as="geometry" />
        </mxCell>
        <mxCell id="zkfFHV4jXpPFQw0GAbJ--1" value="- Float windowWidth,windowHeight" style="text;align=left;verticalAlign=top;spacingLeft=4;spacingRight=4;overflow=hidden;rotatable=0;points=[[0,0.5],[1,0.5]];portConstraint=eastwest;" parent="zkfFHV4jXpPFQw0GAbJ--0" vertex="1">
          <mxGeometry y="52" width="200" height="26" as="geometry" />
        </mxCell>
        <mxCell id="zkfFHV4jXpPFQw0GAbJ--2" value="- PImage background" style="text;align=left;verticalAlign=top;spacingLeft=4;spacingRight=4;overflow=hidden;rotatable=0;points=[[0,0.5],[1,0.5]];portConstraint=eastwest;rounded=0;shadow=0;html=0;" parent="zkfFHV4jXpPFQw0GAbJ--0" vertex="1">
          <mxGeometry y="78" width="200" height="26" as="geometry" />
        </mxCell>
        <mxCell id="zkfFHV4jXpPFQw0GAbJ--4" value="" style="line;html=1;strokeWidth=1;align=left;verticalAlign=middle;spacingTop=-1;spacingLeft=3;spacingRight=3;rotatable=0;labelPosition=right;points=[];portConstraint=eastwest;" parent="zkfFHV4jXpPFQw0GAbJ--0" vertex="1">
          <mxGeometry y="104" width="200" height="8" as="geometry" />
        </mxCell>
        <mxCell id="zkfFHV4jXpPFQw0GAbJ--5" value="+ displayBackground() : void" style="text;align=left;verticalAlign=top;spacingLeft=4;spacingRight=4;overflow=hidden;rotatable=0;points=[[0,0.5],[1,0.5]];portConstraint=eastwest;" parent="zkfFHV4jXpPFQw0GAbJ--0" vertex="1">
          <mxGeometry y="112" width="200" height="26" as="geometry" />
        </mxCell>
        <mxCell id="pfkrhXHRXbco_d5HkhHZ-12" value="" style="edgeStyle=orthogonalEdgeStyle;rounded=0;orthogonalLoop=1;jettySize=auto;html=1;" edge="1" parent="WIyWlLk6GJQsqaUBKTNV-1" source="zkfFHV4jXpPFQw0GAbJ--6" target="pfkrhXHRXbco_d5HkhHZ-7">
          <mxGeometry relative="1" as="geometry" />
        </mxCell>
        <mxCell id="zkfFHV4jXpPFQw0GAbJ--6" value="TrekantSide" style="swimlane;fontStyle=0;align=center;verticalAlign=top;childLayout=stackLayout;horizontal=1;startSize=26;horizontalStack=0;resizeParent=1;resizeLast=0;collapsible=1;marginBottom=0;rounded=0;shadow=0;strokeWidth=1;" parent="WIyWlLk6GJQsqaUBKTNV-1" vertex="1">
          <mxGeometry x="120" y="360" width="200" height="250" as="geometry">
            <mxRectangle x="130" y="380" width="160" height="26" as="alternateBounds" />
          </mxGeometry>
        </mxCell>
        <mxCell id="zkfFHV4jXpPFQw0GAbJ--7" value="- ButtonPicture backArrow" style="text;align=left;verticalAlign=top;spacingLeft=4;spacingRight=4;overflow=hidden;rotatable=0;points=[[0,0.5],[1,0.5]];portConstraint=eastwest;" parent="zkfFHV4jXpPFQw0GAbJ--6" vertex="1">
          <mxGeometry y="26" width="200" height="26" as="geometry" />
        </mxCell>
        <mxCell id="zkfFHV4jXpPFQw0GAbJ--8" value="- PImage trekant&#xa;&#xa;- float width,height&#xa;&#xa;- ArrayList &lt;Button&gt; buttons1&#xa;- ArrayList &lt;ButtonEllipse&gt; buttons2&#xa;&#xa;- ButtonRotate sideC" style="text;align=left;verticalAlign=top;spacingLeft=4;spacingRight=4;overflow=hidden;rotatable=0;points=[[0,0.5],[1,0.5]];portConstraint=eastwest;rounded=0;shadow=0;html=0;" parent="zkfFHV4jXpPFQw0GAbJ--6" vertex="1">
          <mxGeometry y="52" width="200" height="128" as="geometry" />
        </mxCell>
        <mxCell id="zkfFHV4jXpPFQw0GAbJ--9" value="" style="line;html=1;strokeWidth=1;align=left;verticalAlign=middle;spacingTop=-1;spacingLeft=3;spacingRight=3;rotatable=0;labelPosition=right;points=[];portConstraint=eastwest;" parent="zkfFHV4jXpPFQw0GAbJ--6" vertex="1">
          <mxGeometry y="180" width="200" height="8" as="geometry" />
        </mxCell>
        <mxCell id="zkfFHV4jXpPFQw0GAbJ--11" value="+ displayTrekantSide : void&#xa;&#xa;+ handleButtonClicks : void" style="text;align=left;verticalAlign=top;spacingLeft=4;spacingRight=4;overflow=hidden;rotatable=0;points=[[0,0.5],[1,0.5]];portConstraint=eastwest;" parent="zkfFHV4jXpPFQw0GAbJ--6" vertex="1">
          <mxGeometry y="188" width="200" height="62" as="geometry" />
        </mxCell>
        <mxCell id="zkfFHV4jXpPFQw0GAbJ--12" value="" style="endArrow=block;endSize=10;endFill=0;shadow=0;strokeWidth=1;rounded=0;curved=0;edgeStyle=elbowEdgeStyle;elbow=vertical;" parent="WIyWlLk6GJQsqaUBKTNV-1" source="zkfFHV4jXpPFQw0GAbJ--6" target="zkfFHV4jXpPFQw0GAbJ--0" edge="1">
          <mxGeometry width="160" relative="1" as="geometry">
            <mxPoint x="200" y="203" as="sourcePoint" />
            <mxPoint x="200" y="203" as="targetPoint" />
          </mxGeometry>
        </mxCell>
        <mxCell id="zkfFHV4jXpPFQw0GAbJ--16" value="" style="endArrow=block;endSize=10;endFill=0;shadow=0;strokeWidth=1;rounded=0;curved=0;edgeStyle=elbowEdgeStyle;elbow=vertical;exitX=0.5;exitY=0;exitDx=0;exitDy=0;" parent="WIyWlLk6GJQsqaUBKTNV-1" source="pfkrhXHRXbco_d5HkhHZ-0" target="zkfFHV4jXpPFQw0GAbJ--0" edge="1">
          <mxGeometry width="160" relative="1" as="geometry">
            <mxPoint x="440" y="360" as="sourcePoint" />
            <mxPoint x="310" y="271" as="targetPoint" />
          </mxGeometry>
        </mxCell>
        <mxCell id="pfkrhXHRXbco_d5HkhHZ-0" value="MainMenu" style="swimlane;fontStyle=0;align=center;verticalAlign=top;childLayout=stackLayout;horizontal=1;startSize=26;horizontalStack=0;resizeParent=1;resizeLast=0;collapsible=1;marginBottom=0;rounded=0;shadow=0;strokeWidth=1;" vertex="1" parent="WIyWlLk6GJQsqaUBKTNV-1">
          <mxGeometry x="360" y="360" width="200" height="150" as="geometry">
            <mxRectangle x="130" y="380" width="160" height="26" as="alternateBounds" />
          </mxGeometry>
        </mxCell>
        <mxCell id="pfkrhXHRXbco_d5HkhHZ-1" value="- TekstFelt tekstFelt" style="text;align=left;verticalAlign=top;spacingLeft=4;spacingRight=4;overflow=hidden;rotatable=0;points=[[0,0.5],[1,0.5]];portConstraint=eastwest;" vertex="1" parent="pfkrhXHRXbco_d5HkhHZ-0">
          <mxGeometry y="26" width="200" height="26" as="geometry" />
        </mxCell>
        <mxCell id="pfkrhXHRXbco_d5HkhHZ-2" value="- Button teoriKnap,beregnerKnap" style="text;align=left;verticalAlign=top;spacingLeft=4;spacingRight=4;overflow=hidden;rotatable=0;points=[[0,0.5],[1,0.5]];portConstraint=eastwest;rounded=0;shadow=0;html=0;" vertex="1" parent="pfkrhXHRXbco_d5HkhHZ-0">
          <mxGeometry y="52" width="200" height="28" as="geometry" />
        </mxCell>
        <mxCell id="pfkrhXHRXbco_d5HkhHZ-3" value="" style="line;html=1;strokeWidth=1;align=left;verticalAlign=middle;spacingTop=-1;spacingLeft=3;spacingRight=3;rotatable=0;labelPosition=right;points=[];portConstraint=eastwest;" vertex="1" parent="pfkrhXHRXbco_d5HkhHZ-0">
          <mxGeometry y="80" width="200" height="8" as="geometry" />
        </mxCell>
        <mxCell id="pfkrhXHRXbco_d5HkhHZ-4" value="+ mainMenuDisplay : void&#xa;&#xa;+ handleButtonClicks : void" style="text;align=left;verticalAlign=top;spacingLeft=4;spacingRight=4;overflow=hidden;rotatable=0;points=[[0,0.5],[1,0.5]];portConstraint=eastwest;" vertex="1" parent="pfkrhXHRXbco_d5HkhHZ-0">
          <mxGeometry y="88" width="200" height="62" as="geometry" />
        </mxCell>
        <mxCell id="pfkrhXHRXbco_d5HkhHZ-7" value="TrekantBeregner" style="swimlane;fontStyle=0;align=center;verticalAlign=top;childLayout=stackLayout;horizontal=1;startSize=26;horizontalStack=0;resizeParent=1;resizeLast=0;collapsible=1;marginBottom=0;rounded=0;shadow=0;strokeWidth=1;" vertex="1" parent="WIyWlLk6GJQsqaUBKTNV-1">
          <mxGeometry x="-120" y="660" width="320" height="760" as="geometry">
            <mxRectangle x="130" y="380" width="160" height="26" as="alternateBounds" />
          </mxGeometry>
        </mxCell>
        <mxCell id="pfkrhXHRXbco_d5HkhHZ-20" value="- TekstFelt tekstFelt" style="text;align=left;verticalAlign=top;spacingLeft=4;spacingRight=4;overflow=hidden;rotatable=0;points=[[0,0.5],[1,0.5]];portConstraint=eastwest;" vertex="1" parent="pfkrhXHRXbco_d5HkhHZ-7">
          <mxGeometry y="26" width="320" height="26" as="geometry" />
        </mxCell>
        <mxCell id="pfkrhXHRXbco_d5HkhHZ-21" value="- Button assignValue,beregnSider" style="text;align=left;verticalAlign=top;spacingLeft=4;spacingRight=4;overflow=hidden;rotatable=0;points=[[0,0.5],[1,0.5]];portConstraint=eastwest;" vertex="1" parent="pfkrhXHRXbco_d5HkhHZ-7">
          <mxGeometry y="52" width="320" height="26" as="geometry" />
        </mxCell>
        <mxCell id="pfkrhXHRXbco_d5HkhHZ-22" value="- float sideAL,sideBL,sideCL,vinkelAS,vinkelBS,vinkelCS" style="text;align=left;verticalAlign=top;spacingLeft=4;spacingRight=4;overflow=hidden;rotatable=0;points=[[0,0.5],[1,0.5]];portConstraint=eastwest;" vertex="1" parent="pfkrhXHRXbco_d5HkhHZ-7">
          <mxGeometry y="78" width="320" height="26" as="geometry" />
        </mxCell>
        <mxCell id="pfkrhXHRXbco_d5HkhHZ-23" value="- int sideSelected" style="text;align=left;verticalAlign=top;spacingLeft=4;spacingRight=4;overflow=hidden;rotatable=0;points=[[0,0.5],[1,0.5]];portConstraint=eastwest;" vertex="1" parent="pfkrhXHRXbco_d5HkhHZ-7">
          <mxGeometry y="104" width="320" height="26" as="geometry" />
        </mxCell>
        <mxCell id="pfkrhXHRXbco_d5HkhHZ-25" value="- String[] valgtSide" style="text;align=left;verticalAlign=top;spacingLeft=4;spacingRight=4;overflow=hidden;rotatable=0;points=[[0,0.5],[1,0.5]];portConstraint=eastwest;" vertex="1" parent="pfkrhXHRXbco_d5HkhHZ-7">
          <mxGeometry y="130" width="320" height="26" as="geometry" />
        </mxCell>
        <mxCell id="pfkrhXHRXbco_d5HkhHZ-8" value="- boolean nan" style="text;align=left;verticalAlign=top;spacingLeft=4;spacingRight=4;overflow=hidden;rotatable=0;points=[[0,0.5],[1,0.5]];portConstraint=eastwest;" vertex="1" parent="pfkrhXHRXbco_d5HkhHZ-7">
          <mxGeometry y="156" width="320" height="26" as="geometry" />
        </mxCell>
        <mxCell id="pfkrhXHRXbco_d5HkhHZ-10" value="" style="line;html=1;strokeWidth=1;align=left;verticalAlign=middle;spacingTop=-1;spacingLeft=3;spacingRight=3;rotatable=0;labelPosition=right;points=[];portConstraint=eastwest;" vertex="1" parent="pfkrhXHRXbco_d5HkhHZ-7">
          <mxGeometry y="182" width="320" height="8" as="geometry" />
        </mxCell>
        <mxCell id="pfkrhXHRXbco_d5HkhHZ-26" value="+ display() : void" style="text;align=left;verticalAlign=top;spacingLeft=4;spacingRight=4;overflow=hidden;rotatable=0;points=[[0,0.5],[1,0.5]];portConstraint=eastwest;" vertex="1" parent="pfkrhXHRXbco_d5HkhHZ-7">
          <mxGeometry y="190" width="320" height="30" as="geometry" />
        </mxCell>
        <mxCell id="pfkrhXHRXbco_d5HkhHZ-27" value="+ handleButtonClicks() : void" style="text;align=left;verticalAlign=top;spacingLeft=4;spacingRight=4;overflow=hidden;rotatable=0;points=[[0,0.5],[1,0.5]];portConstraint=eastwest;" vertex="1" parent="pfkrhXHRXbco_d5HkhHZ-7">
          <mxGeometry y="220" width="320" height="30" as="geometry" />
        </mxCell>
        <mxCell id="pfkrhXHRXbco_d5HkhHZ-28" value="+ handleKeyClicks() : void" style="text;align=left;verticalAlign=top;spacingLeft=4;spacingRight=4;overflow=hidden;rotatable=0;points=[[0,0.5],[1,0.5]];portConstraint=eastwest;" vertex="1" parent="pfkrhXHRXbco_d5HkhHZ-7">
          <mxGeometry y="250" width="320" height="30" as="geometry" />
        </mxCell>
        <mxCell id="pfkrhXHRXbco_d5HkhHZ-29" value="+ calculateSideA() : void" style="text;align=left;verticalAlign=top;spacingLeft=4;spacingRight=4;overflow=hidden;rotatable=0;points=[[0,0.5],[1,0.5]];portConstraint=eastwest;" vertex="1" parent="pfkrhXHRXbco_d5HkhHZ-7">
          <mxGeometry y="280" width="320" height="30" as="geometry" />
        </mxCell>
        <mxCell id="pfkrhXHRXbco_d5HkhHZ-30" value="+ calculateSideB() : void" style="text;align=left;verticalAlign=top;spacingLeft=4;spacingRight=4;overflow=hidden;rotatable=0;points=[[0,0.5],[1,0.5]];portConstraint=eastwest;" vertex="1" parent="pfkrhXHRXbco_d5HkhHZ-7">
          <mxGeometry y="310" width="320" height="30" as="geometry" />
        </mxCell>
        <mxCell id="pfkrhXHRXbco_d5HkhHZ-31" value="+ calculateSideC() : void" style="text;align=left;verticalAlign=top;spacingLeft=4;spacingRight=4;overflow=hidden;rotatable=0;points=[[0,0.5],[1,0.5]];portConstraint=eastwest;" vertex="1" parent="pfkrhXHRXbco_d5HkhHZ-7">
          <mxGeometry y="340" width="320" height="30" as="geometry" />
        </mxCell>
        <mxCell id="pfkrhXHRXbco_d5HkhHZ-32" value="+ calculateVinkelA() : void" style="text;align=left;verticalAlign=top;spacingLeft=4;spacingRight=4;overflow=hidden;rotatable=0;points=[[0,0.5],[1,0.5]];portConstraint=eastwest;" vertex="1" parent="pfkrhXHRXbco_d5HkhHZ-7">
          <mxGeometry y="370" width="320" height="30" as="geometry" />
        </mxCell>
        <mxCell id="pfkrhXHRXbco_d5HkhHZ-33" value="+ calculateVinkelB() : void" style="text;align=left;verticalAlign=top;spacingLeft=4;spacingRight=4;overflow=hidden;rotatable=0;points=[[0,0.5],[1,0.5]];portConstraint=eastwest;" vertex="1" parent="pfkrhXHRXbco_d5HkhHZ-7">
          <mxGeometry y="400" width="320" height="30" as="geometry" />
        </mxCell>
        <mxCell id="pfkrhXHRXbco_d5HkhHZ-34" value="+ sideSelected(int vS, int mS) : void" style="text;align=left;verticalAlign=top;spacingLeft=4;spacingRight=4;overflow=hidden;rotatable=0;points=[[0,0.5],[1,0.5]];portConstraint=eastwest;" vertex="1" parent="pfkrhXHRXbco_d5HkhHZ-7">
          <mxGeometry y="430" width="320" height="30" as="geometry" />
        </mxCell>
        <mxCell id="pfkrhXHRXbco_d5HkhHZ-35" value="+ setSideAL(float n) : void&#xa;&#xa;+ getSideAL() : float" style="text;align=left;verticalAlign=top;spacingLeft=4;spacingRight=4;overflow=hidden;rotatable=0;points=[[0,0.5],[1,0.5]];portConstraint=eastwest;" vertex="1" parent="pfkrhXHRXbco_d5HkhHZ-7">
          <mxGeometry y="460" width="320" height="60" as="geometry" />
        </mxCell>
        <mxCell id="pfkrhXHRXbco_d5HkhHZ-36" value="+ setSideBL(float n) : void&#xa;&#xa;+ getSideBL() : float" style="text;align=left;verticalAlign=top;spacingLeft=4;spacingRight=4;overflow=hidden;rotatable=0;points=[[0,0.5],[1,0.5]];portConstraint=eastwest;" vertex="1" parent="pfkrhXHRXbco_d5HkhHZ-7">
          <mxGeometry y="520" width="320" height="60" as="geometry" />
        </mxCell>
        <mxCell id="pfkrhXHRXbco_d5HkhHZ-37" value="+ setSideCL(float n) : void&#xa;&#xa;+ getSideCL() : float" style="text;align=left;verticalAlign=top;spacingLeft=4;spacingRight=4;overflow=hidden;rotatable=0;points=[[0,0.5],[1,0.5]];portConstraint=eastwest;" vertex="1" parent="pfkrhXHRXbco_d5HkhHZ-7">
          <mxGeometry y="580" width="320" height="60" as="geometry" />
        </mxCell>
        <mxCell id="pfkrhXHRXbco_d5HkhHZ-38" value="+ setVinkelAS(float n) : void&#xa;&#xa;+ getVinkelAS() : float" style="text;align=left;verticalAlign=top;spacingLeft=4;spacingRight=4;overflow=hidden;rotatable=0;points=[[0,0.5],[1,0.5]];portConstraint=eastwest;" vertex="1" parent="pfkrhXHRXbco_d5HkhHZ-7">
          <mxGeometry y="640" width="320" height="60" as="geometry" />
        </mxCell>
        <mxCell id="pfkrhXHRXbco_d5HkhHZ-11" value="+ setVinkelBS(float n) : void&#xa;&#xa;+ getVinkelBS() : float" style="text;align=left;verticalAlign=top;spacingLeft=4;spacingRight=4;overflow=hidden;rotatable=0;points=[[0,0.5],[1,0.5]];portConstraint=eastwest;" vertex="1" parent="pfkrhXHRXbco_d5HkhHZ-7">
          <mxGeometry y="700" width="320" height="60" as="geometry" />
        </mxCell>
        <mxCell id="pfkrhXHRXbco_d5HkhHZ-13" value="TrekantTeori" style="swimlane;fontStyle=0;align=center;verticalAlign=top;childLayout=stackLayout;horizontal=1;startSize=26;horizontalStack=0;resizeParent=1;resizeLast=0;collapsible=1;marginBottom=0;rounded=0;shadow=0;strokeWidth=1;" vertex="1" parent="WIyWlLk6GJQsqaUBKTNV-1">
          <mxGeometry x="240" y="660" width="200" height="94" as="geometry">
            <mxRectangle x="130" y="380" width="160" height="26" as="alternateBounds" />
          </mxGeometry>
        </mxCell>
        <mxCell id="pfkrhXHRXbco_d5HkhHZ-15" value="- PImage[] pictiures" style="text;align=left;verticalAlign=top;spacingLeft=4;spacingRight=4;overflow=hidden;rotatable=0;points=[[0,0.5],[1,0.5]];portConstraint=eastwest;rounded=0;shadow=0;html=0;" vertex="1" parent="pfkrhXHRXbco_d5HkhHZ-13">
          <mxGeometry y="26" width="200" height="28" as="geometry" />
        </mxCell>
        <mxCell id="pfkrhXHRXbco_d5HkhHZ-16" value="" style="line;html=1;strokeWidth=1;align=left;verticalAlign=middle;spacingTop=-1;spacingLeft=3;spacingRight=3;rotatable=0;labelPosition=right;points=[];portConstraint=eastwest;" vertex="1" parent="pfkrhXHRXbco_d5HkhHZ-13">
          <mxGeometry y="54" width="200" height="8" as="geometry" />
        </mxCell>
        <mxCell id="pfkrhXHRXbco_d5HkhHZ-17" value="+ display(int sideSelected) : void" style="text;align=left;verticalAlign=top;spacingLeft=4;spacingRight=4;overflow=hidden;rotatable=0;points=[[0,0.5],[1,0.5]];portConstraint=eastwest;" vertex="1" parent="pfkrhXHRXbco_d5HkhHZ-13">
          <mxGeometry y="62" width="200" height="32" as="geometry" />
        </mxCell>
        <mxCell id="pfkrhXHRXbco_d5HkhHZ-18" style="edgeStyle=orthogonalEdgeStyle;rounded=0;orthogonalLoop=1;jettySize=auto;html=1;entryX=0.495;entryY=1.016;entryDx=0;entryDy=0;entryPerimeter=0;" edge="1" parent="WIyWlLk6GJQsqaUBKTNV-1" source="pfkrhXHRXbco_d5HkhHZ-13" target="zkfFHV4jXpPFQw0GAbJ--11">
          <mxGeometry relative="1" as="geometry" />
        </mxCell>
        <mxCell id="pfkrhXHRXbco_d5HkhHZ-42" value="ButtonPicture" style="swimlane;fontStyle=0;align=center;verticalAlign=top;childLayout=stackLayout;horizontal=1;startSize=26;horizontalStack=0;resizeParent=1;resizeLast=0;collapsible=1;marginBottom=0;rounded=0;shadow=0;strokeWidth=1;" vertex="1" parent="WIyWlLk6GJQsqaUBKTNV-1">
          <mxGeometry x="-200" y="280" width="200" height="180" as="geometry">
            <mxRectangle x="130" y="380" width="160" height="26" as="alternateBounds" />
          </mxGeometry>
        </mxCell>
        <mxCell id="pfkrhXHRXbco_d5HkhHZ-43" value="- float x,y,w,h" style="text;align=left;verticalAlign=top;spacingLeft=4;spacingRight=4;overflow=hidden;rotatable=0;points=[[0,0.5],[1,0.5]];portConstraint=eastwest;" vertex="1" parent="pfkrhXHRXbco_d5HkhHZ-42">
          <mxGeometry y="26" width="200" height="26" as="geometry" />
        </mxCell>
        <mxCell id="pfkrhXHRXbco_d5HkhHZ-48" value="- String action" style="text;align=left;verticalAlign=top;spacingLeft=4;spacingRight=4;overflow=hidden;rotatable=0;points=[[0,0.5],[1,0.5]];portConstraint=eastwest;rounded=0;shadow=0;html=0;" vertex="1" parent="pfkrhXHRXbco_d5HkhHZ-42">
          <mxGeometry y="52" width="200" height="28" as="geometry" />
        </mxCell>
        <mxCell id="pfkrhXHRXbco_d5HkhHZ-44" value="- PImage image" style="text;align=left;verticalAlign=top;spacingLeft=4;spacingRight=4;overflow=hidden;rotatable=0;points=[[0,0.5],[1,0.5]];portConstraint=eastwest;rounded=0;shadow=0;html=0;" vertex="1" parent="pfkrhXHRXbco_d5HkhHZ-42">
          <mxGeometry y="80" width="200" height="28" as="geometry" />
        </mxCell>
        <mxCell id="pfkrhXHRXbco_d5HkhHZ-45" value="" style="line;html=1;strokeWidth=1;align=left;verticalAlign=middle;spacingTop=-1;spacingLeft=3;spacingRight=3;rotatable=0;labelPosition=right;points=[];portConstraint=eastwest;" vertex="1" parent="pfkrhXHRXbco_d5HkhHZ-42">
          <mxGeometry y="108" width="200" height="8" as="geometry" />
        </mxCell>
        <mxCell id="pfkrhXHRXbco_d5HkhHZ-50" value="+ display() : void" style="text;align=left;verticalAlign=top;spacingLeft=4;spacingRight=4;overflow=hidden;rotatable=0;points=[[0,0.5],[1,0.5]];portConstraint=eastwest;" vertex="1" parent="pfkrhXHRXbco_d5HkhHZ-42">
          <mxGeometry y="116" width="200" height="32" as="geometry" />
        </mxCell>
        <mxCell id="pfkrhXHRXbco_d5HkhHZ-49" value="+ mouseClickDetection() : void" style="text;align=left;verticalAlign=top;spacingLeft=4;spacingRight=4;overflow=hidden;rotatable=0;points=[[0,0.5],[1,0.5]];portConstraint=eastwest;" vertex="1" parent="pfkrhXHRXbco_d5HkhHZ-42">
          <mxGeometry y="148" width="200" height="32" as="geometry" />
        </mxCell>
        <mxCell id="pfkrhXHRXbco_d5HkhHZ-47" style="edgeStyle=orthogonalEdgeStyle;rounded=0;orthogonalLoop=1;jettySize=auto;html=1;exitX=1;exitY=0.5;exitDx=0;exitDy=0;entryX=0;entryY=0.5;entryDx=0;entryDy=0;endArrow=diamondThin;endFill=1;" edge="1" parent="WIyWlLk6GJQsqaUBKTNV-1" source="pfkrhXHRXbco_d5HkhHZ-44" target="zkfFHV4jXpPFQw0GAbJ--8">
          <mxGeometry relative="1" as="geometry" />
        </mxCell>
        <mxCell id="pfkrhXHRXbco_d5HkhHZ-58" style="edgeStyle=orthogonalEdgeStyle;rounded=0;orthogonalLoop=1;jettySize=auto;html=1;entryX=0;entryY=0.5;entryDx=0;entryDy=0;endArrow=diamondThin;endFill=1;" edge="1" parent="WIyWlLk6GJQsqaUBKTNV-1" source="pfkrhXHRXbco_d5HkhHZ-51" target="zkfFHV4jXpPFQw0GAbJ--8">
          <mxGeometry relative="1" as="geometry" />
        </mxCell>
        <mxCell id="pfkrhXHRXbco_d5HkhHZ-51" value="ButtonRotate" style="swimlane;fontStyle=0;align=center;verticalAlign=top;childLayout=stackLayout;horizontal=1;startSize=26;horizontalStack=0;resizeParent=1;resizeLast=0;collapsible=1;marginBottom=0;rounded=0;shadow=0;strokeWidth=1;" vertex="1" parent="WIyWlLk6GJQsqaUBKTNV-1">
          <mxGeometry x="-220" y="490" width="220" height="152" as="geometry">
            <mxRectangle x="130" y="380" width="160" height="26" as="alternateBounds" />
          </mxGeometry>
        </mxCell>
        <mxCell id="pfkrhXHRXbco_d5HkhHZ-52" value="- float x,y,w,h,gapToTop,textSize,vinkel" style="text;align=left;verticalAlign=top;spacingLeft=4;spacingRight=4;overflow=hidden;rotatable=0;points=[[0,0.5],[1,0.5]];portConstraint=eastwest;" vertex="1" parent="pfkrhXHRXbco_d5HkhHZ-51">
          <mxGeometry y="26" width="220" height="26" as="geometry" />
        </mxCell>
        <mxCell id="pfkrhXHRXbco_d5HkhHZ-53" value="- String action titel" style="text;align=left;verticalAlign=top;spacingLeft=4;spacingRight=4;overflow=hidden;rotatable=0;points=[[0,0.5],[1,0.5]];portConstraint=eastwest;rounded=0;shadow=0;html=0;" vertex="1" parent="pfkrhXHRXbco_d5HkhHZ-51">
          <mxGeometry y="52" width="220" height="28" as="geometry" />
        </mxCell>
        <mxCell id="pfkrhXHRXbco_d5HkhHZ-55" value="" style="line;html=1;strokeWidth=1;align=left;verticalAlign=middle;spacingTop=-1;spacingLeft=3;spacingRight=3;rotatable=0;labelPosition=right;points=[];portConstraint=eastwest;" vertex="1" parent="pfkrhXHRXbco_d5HkhHZ-51">
          <mxGeometry y="80" width="220" height="8" as="geometry" />
        </mxCell>
        <mxCell id="pfkrhXHRXbco_d5HkhHZ-56" value="+ display() : void" style="text;align=left;verticalAlign=top;spacingLeft=4;spacingRight=4;overflow=hidden;rotatable=0;points=[[0,0.5],[1,0.5]];portConstraint=eastwest;" vertex="1" parent="pfkrhXHRXbco_d5HkhHZ-51">
          <mxGeometry y="88" width="220" height="32" as="geometry" />
        </mxCell>
        <mxCell id="pfkrhXHRXbco_d5HkhHZ-57" value="+ mouseClickDetection() : void" style="text;align=left;verticalAlign=top;spacingLeft=4;spacingRight=4;overflow=hidden;rotatable=0;points=[[0,0.5],[1,0.5]];portConstraint=eastwest;" vertex="1" parent="pfkrhXHRXbco_d5HkhHZ-51">
          <mxGeometry y="120" width="220" height="32" as="geometry" />
        </mxCell>
        <mxCell id="pfkrhXHRXbco_d5HkhHZ-66" style="edgeStyle=orthogonalEdgeStyle;rounded=0;orthogonalLoop=1;jettySize=auto;html=1;entryX=0;entryY=0.5;entryDx=0;entryDy=0;endArrow=diamondThin;endFill=1;" edge="1" parent="WIyWlLk6GJQsqaUBKTNV-1" source="pfkrhXHRXbco_d5HkhHZ-59" target="pfkrhXHRXbco_d5HkhHZ-21">
          <mxGeometry relative="1" as="geometry" />
        </mxCell>
        <mxCell id="pfkrhXHRXbco_d5HkhHZ-68" style="edgeStyle=orthogonalEdgeStyle;rounded=0;orthogonalLoop=1;jettySize=auto;html=1;endArrow=none;endFill=0;" edge="1" parent="WIyWlLk6GJQsqaUBKTNV-1" source="pfkrhXHRXbco_d5HkhHZ-59">
          <mxGeometry relative="1" as="geometry">
            <mxPoint x="-370" y="470" as="targetPoint" />
          </mxGeometry>
        </mxCell>
        <mxCell id="pfkrhXHRXbco_d5HkhHZ-70" style="edgeStyle=orthogonalEdgeStyle;rounded=0;orthogonalLoop=1;jettySize=auto;html=1;endArrow=none;endFill=0;" edge="1" parent="WIyWlLk6GJQsqaUBKTNV-1" source="pfkrhXHRXbco_d5HkhHZ-59">
          <mxGeometry relative="1" as="geometry">
            <mxPoint y="650" as="targetPoint" />
          </mxGeometry>
        </mxCell>
        <mxCell id="pfkrhXHRXbco_d5HkhHZ-59" value="Button" style="swimlane;fontStyle=0;align=center;verticalAlign=top;childLayout=stackLayout;horizontal=1;startSize=26;horizontalStack=0;resizeParent=1;resizeLast=0;collapsible=1;marginBottom=0;rounded=0;shadow=0;strokeWidth=1;" vertex="1" parent="WIyWlLk6GJQsqaUBKTNV-1">
          <mxGeometry x="-460" y="649" width="180" height="152" as="geometry">
            <mxRectangle x="130" y="380" width="160" height="26" as="alternateBounds" />
          </mxGeometry>
        </mxCell>
        <mxCell id="pfkrhXHRXbco_d5HkhHZ-60" value="- float x,y,w,h,gapToTop,textSize" style="text;align=left;verticalAlign=top;spacingLeft=4;spacingRight=4;overflow=hidden;rotatable=0;points=[[0,0.5],[1,0.5]];portConstraint=eastwest;" vertex="1" parent="pfkrhXHRXbco_d5HkhHZ-59">
          <mxGeometry y="26" width="180" height="26" as="geometry" />
        </mxCell>
        <mxCell id="pfkrhXHRXbco_d5HkhHZ-61" value="- String action titel" style="text;align=left;verticalAlign=top;spacingLeft=4;spacingRight=4;overflow=hidden;rotatable=0;points=[[0,0.5],[1,0.5]];portConstraint=eastwest;rounded=0;shadow=0;html=0;" vertex="1" parent="pfkrhXHRXbco_d5HkhHZ-59">
          <mxGeometry y="52" width="180" height="28" as="geometry" />
        </mxCell>
        <mxCell id="pfkrhXHRXbco_d5HkhHZ-62" value="" style="line;html=1;strokeWidth=1;align=left;verticalAlign=middle;spacingTop=-1;spacingLeft=3;spacingRight=3;rotatable=0;labelPosition=right;points=[];portConstraint=eastwest;" vertex="1" parent="pfkrhXHRXbco_d5HkhHZ-59">
          <mxGeometry y="80" width="180" height="8" as="geometry" />
        </mxCell>
        <mxCell id="pfkrhXHRXbco_d5HkhHZ-63" value="+ display() : void" style="text;align=left;verticalAlign=top;spacingLeft=4;spacingRight=4;overflow=hidden;rotatable=0;points=[[0,0.5],[1,0.5]];portConstraint=eastwest;" vertex="1" parent="pfkrhXHRXbco_d5HkhHZ-59">
          <mxGeometry y="88" width="180" height="32" as="geometry" />
        </mxCell>
        <mxCell id="pfkrhXHRXbco_d5HkhHZ-64" value="+ mouseClickDetection() : void" style="text;align=left;verticalAlign=top;spacingLeft=4;spacingRight=4;overflow=hidden;rotatable=0;points=[[0,0.5],[1,0.5]];portConstraint=eastwest;" vertex="1" parent="pfkrhXHRXbco_d5HkhHZ-59">
          <mxGeometry y="120" width="180" height="32" as="geometry" />
        </mxCell>
        <mxCell id="pfkrhXHRXbco_d5HkhHZ-69" value="" style="endArrow=diamondThin;html=1;rounded=0;entryX=0;entryY=0.5;entryDx=0;entryDy=0;endFill=1;" edge="1" parent="WIyWlLk6GJQsqaUBKTNV-1" target="zkfFHV4jXpPFQw0GAbJ--8">
          <mxGeometry width="50" height="50" relative="1" as="geometry">
            <mxPoint x="-370" y="470" as="sourcePoint" />
            <mxPoint x="-320" y="400" as="targetPoint" />
          </mxGeometry>
        </mxCell>
        <mxCell id="pfkrhXHRXbco_d5HkhHZ-71" value="" style="endArrow=none;html=1;rounded=0;endFill=0;" edge="1" parent="WIyWlLk6GJQsqaUBKTNV-1">
          <mxGeometry width="50" height="50" relative="1" as="geometry">
            <mxPoint y="650" as="sourcePoint" />
            <mxPoint x="460" y="650" as="targetPoint" />
          </mxGeometry>
        </mxCell>
        <mxCell id="pfkrhXHRXbco_d5HkhHZ-72" value="" style="endArrow=diamondThin;html=1;rounded=0;endFill=1;" edge="1" parent="WIyWlLk6GJQsqaUBKTNV-1" target="pfkrhXHRXbco_d5HkhHZ-4">
          <mxGeometry width="50" height="50" relative="1" as="geometry">
            <mxPoint x="460" y="650" as="sourcePoint" />
            <mxPoint x="160" y="570" as="targetPoint" />
          </mxGeometry>
        </mxCell>
        <mxCell id="pfkrhXHRXbco_d5HkhHZ-80" style="edgeStyle=orthogonalEdgeStyle;rounded=0;orthogonalLoop=1;jettySize=auto;html=1;endArrow=none;endFill=0;" edge="1" parent="WIyWlLk6GJQsqaUBKTNV-1" source="pfkrhXHRXbco_d5HkhHZ-73">
          <mxGeometry relative="1" as="geometry">
            <mxPoint x="-370" y="470" as="targetPoint" />
          </mxGeometry>
        </mxCell>
        <mxCell id="pfkrhXHRXbco_d5HkhHZ-73" value="ButtonEllipse" style="swimlane;fontStyle=0;align=center;verticalAlign=top;childLayout=stackLayout;horizontal=1;startSize=26;horizontalStack=0;resizeParent=1;resizeLast=0;collapsible=1;marginBottom=0;rounded=0;shadow=0;strokeWidth=1;" vertex="1" parent="WIyWlLk6GJQsqaUBKTNV-1">
          <mxGeometry x="-460" y="280" width="180" height="152" as="geometry">
            <mxRectangle x="130" y="380" width="160" height="26" as="alternateBounds" />
          </mxGeometry>
        </mxCell>
        <mxCell id="pfkrhXHRXbco_d5HkhHZ-74" value="- float x,y,w,h,gapToTop,textSize" style="text;align=left;verticalAlign=top;spacingLeft=4;spacingRight=4;overflow=hidden;rotatable=0;points=[[0,0.5],[1,0.5]];portConstraint=eastwest;" vertex="1" parent="pfkrhXHRXbco_d5HkhHZ-73">
          <mxGeometry y="26" width="180" height="26" as="geometry" />
        </mxCell>
        <mxCell id="pfkrhXHRXbco_d5HkhHZ-75" value="- String action titel" style="text;align=left;verticalAlign=top;spacingLeft=4;spacingRight=4;overflow=hidden;rotatable=0;points=[[0,0.5],[1,0.5]];portConstraint=eastwest;rounded=0;shadow=0;html=0;" vertex="1" parent="pfkrhXHRXbco_d5HkhHZ-73">
          <mxGeometry y="52" width="180" height="28" as="geometry" />
        </mxCell>
        <mxCell id="pfkrhXHRXbco_d5HkhHZ-76" value="" style="line;html=1;strokeWidth=1;align=left;verticalAlign=middle;spacingTop=-1;spacingLeft=3;spacingRight=3;rotatable=0;labelPosition=right;points=[];portConstraint=eastwest;" vertex="1" parent="pfkrhXHRXbco_d5HkhHZ-73">
          <mxGeometry y="80" width="180" height="8" as="geometry" />
        </mxCell>
        <mxCell id="pfkrhXHRXbco_d5HkhHZ-77" value="+ display() : void" style="text;align=left;verticalAlign=top;spacingLeft=4;spacingRight=4;overflow=hidden;rotatable=0;points=[[0,0.5],[1,0.5]];portConstraint=eastwest;" vertex="1" parent="pfkrhXHRXbco_d5HkhHZ-73">
          <mxGeometry y="88" width="180" height="32" as="geometry" />
        </mxCell>
        <mxCell id="pfkrhXHRXbco_d5HkhHZ-78" value="+ mouseClickDetection() : void" style="text;align=left;verticalAlign=top;spacingLeft=4;spacingRight=4;overflow=hidden;rotatable=0;points=[[0,0.5],[1,0.5]];portConstraint=eastwest;" vertex="1" parent="pfkrhXHRXbco_d5HkhHZ-73">
          <mxGeometry y="120" width="180" height="30" as="geometry" />
        </mxCell>
      </root>
    </mxGraphModel>
  </diagram>
</mxfile>
